<?xml version="1.0" encoding="UTF-8"?><svg id="Calque_1" xmlns="http://www.w3.org/2000/svg" viewBox="0 0 258.99 538.79"><defs><style>.cls-1{fill:none;stroke:#000;stroke-miterlimit:10;stroke-width:2px;}</style></defs><path class="cls-1" d="M158.88,538.33c4.47-8.62,8.07-18.26,4.07-27.76-3.12-7.41-10.22-10.7-17.94-11.22-10.53-.7-29.28,2.97-32.23,15.37-1.33,5.61,1.51,11.58,7.54,12.55,7.97,1.29,18.2-4.58,23.87-9.75,8.19-7.46,11.65-18.14,11.32-29.04-1.29-42.34-7.61-84.62-18.56-125.54-5.64-21.06-11.2-42.8-21.57-62.12-6.04-11.26-13.1-22.14-19.8-33.02-3.52-5.71-7.03-11.45-10.9-16.92-8.99-12.74-17.61-19.86-25.86-44.6s-21.36-39.73-24.36-39.73-11.24,2.25-4.5,15.74c6.75,13.49,13.87,28.11,18.36,30.73s11.62,1.5,25.11-2.62c13.49-4.12,56.22-18.36,69.33-25.86,1.64-.94,3.11-1.84,4.42-2.74,9.19-6.24,10.66-11.65,8.7-20.5-2.71-12.19-9.76-24.68-17.09-34.66-1.9-2.58-5.21-5.34-7.9-3.6-1.91,1.24-2.01,3.97-1.83,6.24,.97,12.27,3.87,24.39,8.57,35.77,1.89,4.58,5.13,9.75,10.09,9.64,.64-8.36-.1-16.77-1.43-25.04C136.31,87.72,92.04,34.37,36.71,4.76,31.6,2.03,25.38-.55,20.23,2.13c-4.05,2.1-5.96,6.76-7.42,11.08C.18,50.53-2.39,91.21,5.44,129.84c2.32,11.44,7.78,24.81,19.35,26.4,7.77,1.07,16.4-3.21,23.58-5.64,21.09-7.14,41.56-16.68,62.01-25.5,4.89-2.11,15.18-5.34,13.21-9.28-1.84-3.69-15.17,1.41-12.06,.49,.79-.24-30.75,9.21-46.39,14.88-8.36,3.03-16.64,6.27-24.84,9.71-6.7,2.81-16.31,5.37-20.51,11.82-3.72,5.71-2.11,13.24-.11,19.75,6.12,19.94,14.71,39.11,25.52,56.95,5.39,8.9,11.82,17.88,21.34,22.09-4.98-14.28-13.55-27.3-24.69-37.53-.94-.86-1.96-1.74-3.22-1.99-3.52-.71-5.82,3.52-6.85,6.96-5.42,18.16-9.93,36.84-9.77,55.79,.16,18.95,5.35,38.37,17.51,52.92,.81,.97,1.7,1.95,2.87,2.46,4.8,2.06,8.33-4.66,9.63-9.72,7.4-28.63,29.31-52.69,56.39-64.56,27.09-11.87,58.74-11.91,86.61-2.02,12.14,4.31,23.57,10.38,35.06,16.21,3.03,1.53,7.73,2.48,8.95-.69,.35-.92,.24-1.94,.11-2.91-4.38-33.06-26.66-62.61-56.12-77.75-6.81-3.5-14.02-6.23-21.46-8.05-2.61-.64-7.35-2.51-9.76-.44-2.11,1.82-1.62,6.06-1.53,8.49,.37,10.87,1.12,41.23-4.12,63.34-.14,.61-.28,1.2-.41,1.78-1.19,5.49-4.07,18.26,.35,23.18,.64,.71,1.92,2.22,1.93,.15,.03-4.59-.53-20.19-.11-28.06,.17-3.21-2.35-1.05-3.65,.01-12.74,10.47-30.46,23.88-48.03,18.7-1.58-.47-6.64-2.87-6.93,.26-1.94,21.51,30.5,33.87,45.98,21.83,6.75-5.25,3.37-12.37,1.87-10.12-1.23,1.85,.76,7.38,1.16,9.27,1.33,6.32,2.92,12.58,4.52,18.83,8.73,34.09,22.18,66,36.52,98.05,9.13,20.41,18.11,41.56,30.13,60.48,17.61,27.73,38.23,47.22,48.72,61.09"/></svg>