<svg width="100" height="101" viewBox="0 0 100 101" fill="none" xmlns="http://www.w3.org/2000/svg">
<path d="M5.55 16.91C5.55 18.47 4.3 19.74 2.76 19.74C1.22 19.74 0 18.47 0 16.91C0 15.35 1.21 14.12 2.76 14.12C4.31 14.12 5.55 15.37 5.55 16.91ZM23.02 13.53C21.83 15.28 20.06 15.65 18.77 15.65C15.42 15.65 13.17 13.32 13.17 9.85C13.17 6.38 15.47 4.06 18.77 4.06C20.57 4.06 22.08 4.82 23.02 6.21L23.58 7.04L26.95 4.75L26.46 3.93999C24.92 1.40999 22.19 0.0100021 18.77 0.0100021C12.98 0.0100021 8.79 4.15 8.79 9.86C8.79 15.57 12.99 19.75 18.77 19.75C22.11 19.75 24.91 18.32 26.45 15.82L26.95 15.01L23.57 12.72L23.01 13.55L23.02 13.53ZM49.39 9.85C49.39 15.58 45.25 19.74 39.54 19.74C33.83 19.74 29.65 15.58 29.65 9.85C29.65 4.12 33.81 0 39.54 0C45.27 0 49.39 4.14 49.39 9.85ZM45 9.85C45 6.44 42.75 4.06 39.54 4.06C36.33 4.06 34.04 6.44 34.04 9.85C34.04 13.26 36.3 15.65 39.54 15.65C42.78 15.65 45 13.27 45 9.85ZM77.45 0C74.64 0 72.25 1 70.64 2.83C69.27 1 67.07 0 64.35 0C62.23 0 60.38 0.579995 58.95 1.68999V0.139999H54.7V19.58H59.05V9.43C59.05 6.06 60.81 4.13 63.89 4.13C66.57 4.13 67.93 5.67 67.93 8.7V19.58H72.28V9.43C72.28 6.06 74.04 4.13 77.12 4.13C79.78 4.13 81.13 5.67 81.13 8.7V19.58H85.48V8.47C85.48 3.17 82.48 0.0100021 77.45 0.0100021V0Z" fill="#00F094"/>
<path d="M5.55 97.91C5.55 99.47 4.3 100.74 2.76 100.74C1.22 100.74 0 99.47 0 97.91C0 96.35 1.21 95.12 2.76 95.12C4.31 95.12 5.55 96.37 5.55 97.91ZM23.02 94.53C21.83 96.28 20.06 96.65 18.77 96.65C15.42 96.65 13.17 94.32 13.17 90.85C13.17 87.38 15.47 85.06 18.77 85.06C20.57 85.06 22.08 85.82 23.02 87.21L23.58 88.04L26.95 85.75L26.46 84.94C24.92 82.41 22.19 81.01 18.77 81.01C12.98 81.01 8.79 85.15 8.79 90.86C8.79 96.57 12.99 100.75 18.77 100.75C22.11 100.75 24.91 99.32 26.45 96.82L26.95 96.01L23.57 93.72L23.01 94.55L23.02 94.53ZM49.39 90.85C49.39 96.58 45.25 100.74 39.54 100.74C33.83 100.74 29.65 96.58 29.65 90.85C29.65 85.12 33.81 81 39.54 81C45.27 81 49.39 85.14 49.39 90.85ZM45 90.85C45 87.44 42.75 85.06 39.54 85.06C36.33 85.06 34.04 87.44 34.04 90.85C34.04 94.26 36.3 96.65 39.54 96.65C42.78 96.65 45 94.27 45 90.85ZM77.45 81C74.64 81 72.25 82 70.64 83.83C69.27 82 67.07 81 64.35 81C62.23 81 60.38 81.58 58.95 82.69V81.14H54.7V100.58H59.05V90.43C59.05 87.06 60.81 85.13 63.89 85.13C66.57 85.13 67.93 86.67 67.93 89.7V100.58H72.28V90.43C72.28 87.06 74.04 85.13 77.12 85.13C79.78 85.13 81.13 86.67 81.13 89.7V100.58H85.48V89.47C85.48 84.17 82.48 81.01 77.45 81.01V81Z" fill="#00F094"/>
<path d="M5.55 60.93C5.55 62.49 4.3 63.75 2.76 63.75C1.22 63.75 0 62.48 0 60.93C0 59.38 1.21 58.14 2.76 58.14C4.31 58.14 5.55 59.39 5.55 60.93ZM28.82 57.12L23.95 44.15H20.54L15.64 57.11L10.86 44.15H6.46L13.78 63.59H17.38L22.2 51.09L27.02 63.59H30.62L37.97 44.15H33.67L28.82 57.12V57.12ZM59.05 53.87C59.05 59.6 54.91 63.76 49.2 63.76C43.49 63.76 39.31 59.6 39.31 53.87C39.31 48.14 43.47 44.02 49.2 44.02C54.93 44.02 59.05 48.16 59.05 53.87ZM54.66 53.87C54.66 50.46 52.41 48.07 49.2 48.07C45.99 48.07 43.7 50.45 43.7 53.87C43.7 57.29 45.96 59.67 49.2 59.67C52.44 59.67 54.66 57.29 54.66 53.87ZM68.61 45.71V44.15H64.36V63.59H68.71V53.71C68.71 50.21 70.44 48.28 73.58 48.28C73.62 48.28 73.67 48.28 73.74 48.29C73.87 48.3 74 48.31 74.14 48.31H75.14V44.02H74.14C71.89 44.02 70 44.6 68.61 45.71V45.71ZM90.45 52.38L99.06 44.16H93.26L84.24 52.41V37H79.89V63.6H84.24V58.07L87.24 55.31L93.9 63.6H99.33L90.46 52.38H90.45Z" fill="#FEE402"/>
</svg>
