<svg width="418" height="178" viewBox="0 0 418 178" fill="none" xmlns="http://www.w3.org/2000/svg">
<path d="M3.27592 55V25.1818H13.9045C16.2243 25.1818 18.1462 25.604 19.6701 26.4485C21.194 27.293 22.3345 28.448 23.0916 29.9137C23.8487 31.3697 24.2273 33.0101 24.2273 34.8349C24.2273 36.6694 23.8439 38.3195 23.0771 39.7852C22.32 41.2411 21.1746 42.3962 19.641 43.2504C18.1171 44.0948 16.2 44.517 13.8899 44.517H6.58097V40.7024H13.4822C14.9479 40.7024 16.137 40.45 17.0494 39.9453C17.9618 39.4309 18.6315 38.732 19.0586 37.8487C19.4857 36.9654 19.6992 35.9608 19.6992 34.8349C19.6992 33.7089 19.4857 32.7092 19.0586 31.8356C18.6315 30.962 17.9569 30.2777 17.0348 29.7827C16.1224 29.2876 14.9188 29.0401 13.424 29.0401H7.77486V55H3.27592ZM30.7022 55H25.9267L36.6571 25.1818H41.8549L52.5854 55H47.8098L39.3798 30.598H39.1468L30.7022 55ZM31.503 43.3232H46.9945V47.1087H31.503V43.3232ZM53.7425 29.0547V25.1818H76.8195V29.0547H67.5159V55H63.0315V29.0547H53.7425ZM88.263 25.1818V55H83.7641V25.1818H88.263ZM122.561 40.0909C122.561 43.2746 121.979 46.0118 120.814 48.3026C119.65 50.5836 118.053 52.3404 116.024 53.5732C114.005 54.7962 111.71 55.4077 109.137 55.4077C106.556 55.4077 104.25 54.7962 102.222 53.5732C100.203 52.3404 98.6108 50.5787 97.446 48.288C96.2813 45.9973 95.6989 43.2649 95.6989 40.0909C95.6989 36.9072 96.2813 34.1748 97.446 31.8938C98.6108 29.6031 100.203 27.8462 102.222 26.6232C104.25 25.3905 106.556 24.7741 109.137 24.7741C111.71 24.7741 114.005 25.3905 116.024 26.6232C118.053 27.8462 119.65 29.6031 120.814 31.8938C121.979 34.1748 122.561 36.9072 122.561 40.0909ZM118.106 40.0909C118.106 37.6643 117.713 35.6211 116.927 33.9613C116.15 32.2918 115.083 31.0299 113.724 30.1758C112.375 29.3119 110.846 28.88 109.137 28.88C107.419 28.88 105.886 29.3119 104.537 30.1758C103.187 31.0299 102.12 32.2918 101.333 33.9613C100.557 35.6211 100.169 37.6643 100.169 40.0909C100.169 42.5175 100.557 44.5656 101.333 46.2351C102.12 47.8949 103.187 49.1567 104.537 50.0206C105.886 50.8748 107.419 51.3018 109.137 51.3018C110.846 51.3018 112.375 50.8748 113.724 50.0206C115.083 49.1567 116.15 47.8949 116.927 46.2351C117.713 44.5656 118.106 42.5175 118.106 40.0909ZM179.474 25.1818V55H175.339L160.182 33.1314H159.906V55H155.407V25.1818H159.571L174.742 47.0795H175.019V25.1818H179.474Z" fill="black"/>
<line x1="84" y1="76.5" x2="159" y2="76.5" stroke="#0FEF76" stroke-width="3"/>
<line y1="-2" x2="17" y2="-2" transform="matrix(0 1 1 0 88 58)" stroke="#0FEF76" stroke-width="4"/>
<line y1="-2" x2="17" y2="-2" transform="matrix(0 1 1 0 159 58)" stroke="#0FEF76" stroke-width="4"/>
<path d="M86 22L86 2" stroke="#0FEF76" stroke-width="4"/>
<line x1="157" y1="22" x2="157" y2="2" stroke="#0FEF76" stroke-width="4"/>
<line x1="84.0035" y1="1.5" x2="159.004" y2="1.67646" stroke="#0FEF76" stroke-width="3"/>
</svg>
