<svg width="177" height="78" viewBox="0 0 177 78" fill="none" xmlns="http://www.w3.org/2000/svg">
<path d="M0.275923 55V25.1818H10.9045C13.2243 25.1818 15.1462 25.604 16.6701 26.4485C18.194 27.293 19.3345 28.448 20.0916 29.9137C20.8487 31.3697 21.2273 33.0101 21.2273 34.8349C21.2273 36.6694 20.8439 38.3195 20.0771 39.7852C19.32 41.2411 18.1746 42.3962 16.641 43.2504C15.1171 44.0948 13.2 44.517 10.8899 44.517H3.58097V40.7024H10.4822C11.9479 40.7024 13.137 40.45 14.0494 39.9453C14.9618 39.4309 15.6315 38.732 16.0586 37.8487C16.4857 36.9654 16.6992 35.9608 16.6992 34.8349C16.6992 33.7089 16.4857 32.7092 16.0586 31.8356C15.6315 30.962 14.9569 30.2777 14.0348 29.7827C13.1224 29.2876 11.9188 29.0401 10.424 29.0401H4.77486V55H0.275923ZM27.7022 55H22.9267L33.6571 25.1818H38.8549L49.5854 55H44.8098L36.3798 30.598H36.1468L27.7022 55ZM28.503 43.3232H43.9945V47.1087H28.503V43.3232ZM50.7425 29.0547V25.1818H73.8195V29.0547H64.5159V55H60.0315V29.0547H50.7425ZM85.263 25.1818V55H80.7641V25.1818H85.263ZM119.561 40.0909C119.561 43.2746 118.979 46.0118 117.814 48.3026C116.65 50.5836 115.053 52.3404 113.024 53.5732C111.005 54.7962 108.71 55.4077 106.137 55.4077C103.556 55.4077 101.25 54.7962 99.2216 53.5732C97.2027 52.3404 95.6108 50.5787 94.446 48.288C93.2813 45.9973 92.6989 43.2649 92.6989 40.0909C92.6989 36.9072 93.2813 34.1748 94.446 31.8938C95.6108 29.6031 97.2027 27.8462 99.2216 26.6232C101.25 25.3905 103.556 24.7741 106.137 24.7741C108.71 24.7741 111.005 25.3905 113.024 26.6232C115.053 27.8462 116.65 29.6031 117.814 31.8938C118.979 34.1748 119.561 36.9072 119.561 40.0909ZM115.106 40.0909C115.106 37.6643 114.713 35.6211 113.927 33.9613C113.15 32.2918 112.083 31.0299 110.724 30.1758C109.375 29.3119 107.846 28.88 106.137 28.88C104.419 28.88 102.886 29.3119 101.537 30.1758C100.187 31.0299 99.1197 32.2918 98.3335 33.9613C97.557 35.6211 97.1687 37.6643 97.1687 40.0909C97.1687 42.5175 97.557 44.5656 98.3335 46.2351C99.1197 47.8949 100.187 49.1567 101.537 50.0206C102.886 50.8748 104.419 51.3018 106.137 51.3018C107.846 51.3018 109.375 50.8748 110.724 50.0206C112.083 49.1567 113.15 47.8949 113.927 46.2351C114.713 44.5656 115.106 42.5175 115.106 40.0909ZM176.474 25.1818V55H172.339L157.182 33.1314H156.906V55H152.407V25.1818H156.571L171.742 47.0795H172.019V25.1818H176.474Z" fill="black"/>
<line x1="81" y1="76.5" x2="156" y2="76.5" stroke="#0FEF76" stroke-width="3"/>
<line y1="-2" x2="17" y2="-2" transform="matrix(0 1 1 0 85 58)" stroke="#0FEF76" stroke-width="4"/>
<line y1="-2" x2="17" y2="-2" transform="matrix(0 1 1 0 156 58)" stroke="#0FEF76" stroke-width="4"/>
<path d="M83 22L83 2" stroke="#0FEF76" stroke-width="4"/>
<line x1="154" y1="22" x2="154" y2="2" stroke="#0FEF76" stroke-width="4"/>
<line x1="81.0035" y1="1.5" x2="156.004" y2="1.67646" stroke="#0FEF76" stroke-width="3"/>
</svg>
