<svg width="87" height="137" viewBox="0 0 87 137" fill="none" xmlns="http://www.w3.org/2000/svg">
<g clip-path="url(#clip0_94_34)">
<path d="M4.8448 102.833C4.8448 104.191 3.75363 105.288 2.40931 105.288C1.06498 105.288 0 104.182 0 102.833C0 101.483 1.05625 100.404 2.40931 100.404C3.76236 100.404 4.8448 101.492 4.8448 102.833ZM25.1581 99.516L20.9069 88.2246H17.9301L13.6527 99.5073L9.4801 88.2246H5.63918L12.0291 105.149H15.1717L19.3792 94.2664L23.5868 105.149H26.7293L33.1454 88.2246H29.3918L25.1581 99.516ZM51.547 96.6866C51.547 101.675 47.933 105.297 42.9485 105.297C37.9641 105.297 34.3152 101.675 34.3152 96.6866C34.3152 91.6982 37.9466 88.1115 42.9485 88.1115C47.9505 88.1115 51.547 91.7156 51.547 96.6866ZM47.7148 96.6866C47.7148 93.718 45.7507 91.6373 42.9485 91.6373C40.1464 91.6373 38.1474 93.7093 38.1474 96.6866C38.1474 99.664 40.1202 101.736 42.9485 101.736C45.7768 101.736 47.7148 99.664 47.7148 96.6866ZM59.8922 89.5827V88.2246H56.1823V105.149H59.9795V96.5473C59.9795 93.5003 61.4897 91.8201 64.2307 91.8201C64.2657 91.8201 64.3093 91.8201 64.3704 91.8288C64.4839 91.8375 64.5974 91.8462 64.7196 91.8462H65.5925V88.1115H64.7196C62.7555 88.1115 61.1056 88.6164 59.8922 89.5827ZM78.9572 95.3895L86.4732 88.2333H81.4102L73.5363 95.4156V82H69.739V105.157H73.5363V100.343L76.1551 97.9402L81.9688 105.157H86.7089L78.9659 95.3895H78.9572Z" fill="#FEE402"/>
<path d="M4.8448 58.7214C4.8448 60.0795 3.75363 61.1851 2.40931 61.1851C1.06498 61.1851 0 60.0795 0 58.7214C0 57.3633 1.05625 56.2925 2.40931 56.2925C3.76236 56.2925 4.8448 57.3807 4.8448 58.7214ZM20.095 55.7789C19.0562 57.3024 17.5111 57.6245 16.385 57.6245C13.4607 57.6245 11.4966 55.5961 11.4966 52.5752C11.4966 49.5543 13.5043 47.5345 16.385 47.5345C17.9563 47.5345 19.2745 48.1962 20.095 49.4063L20.5839 50.1288L23.5257 48.1352L23.0979 47.4301C21.7536 45.2275 19.3705 44.0087 16.385 44.0087C11.3307 44.0087 7.67312 47.6129 7.67312 52.5839C7.67312 57.5549 11.3395 61.1939 16.385 61.1939C19.3006 61.1939 21.7449 59.9489 23.0892 57.7725L23.5257 57.0673L20.5751 55.0737L20.0863 55.7963L20.095 55.7789ZM43.1144 52.5752C43.1144 57.5636 39.5004 61.1851 34.5159 61.1851C29.5315 61.1851 25.8826 57.5636 25.8826 52.5752C25.8826 47.5868 29.514 44 34.5159 44C39.5179 44 43.1144 47.6042 43.1144 52.5752ZM39.2822 52.5752C39.2822 49.6065 37.3181 47.5345 34.5159 47.5345C31.7138 47.5345 29.7148 49.6065 29.7148 52.5752C29.7148 55.5438 31.6876 57.6245 34.5159 57.6245C37.3443 57.6245 39.2822 55.5525 39.2822 52.5752ZM67.609 44C65.1561 44 63.0697 44.8706 61.6643 46.4637C60.4684 44.8706 58.5479 44 56.1735 44C54.3229 44 52.708 44.5049 51.4597 45.4713V44.1219H47.7497V61.0459H51.547V52.2095C51.547 49.2757 53.0833 47.5955 55.772 47.5955C58.1114 47.5955 59.2986 48.9362 59.2986 51.574V61.0459H63.0959V52.2095C63.0959 49.2757 64.6323 47.5955 67.3209 47.5955C69.643 47.5955 70.8214 48.9362 70.8214 51.574V61.0459H74.6187V51.3738C74.6187 46.7597 71.9999 44.0087 67.609 44.0087V44Z" fill="#00F094"/>
<path d="M4.8448 20.536C4.8448 21.894 3.75363 22.991 2.40931 22.991C1.06498 22.991 0 21.886 0 20.536C0 19.187 1.05625 18.107 2.40931 18.107C3.76236 18.107 4.8448 19.196 4.8448 20.536ZM25.1581 17.219L20.9069 5.928H17.9301L13.6527 17.211L9.4801 5.928H5.63918L12.0291 22.852H15.1717L19.3792 11.97L23.5868 22.852H26.7293L33.1454 5.928H29.3918L25.1581 17.219ZM51.547 14.39C51.547 19.378 47.933 23 42.9485 23C37.9641 23 34.3152 19.378 34.3152 14.39C34.3152 9.402 37.9466 5.815 42.9485 5.815C47.9505 5.815 51.547 9.419 51.547 14.39ZM47.7148 14.39C47.7148 11.421 45.7507 9.341 42.9485 9.341C40.1464 9.341 38.1474 11.413 38.1474 14.39C38.1474 17.367 40.1202 19.439 42.9485 19.439C45.7768 19.439 47.7148 17.367 47.7148 14.39ZM59.8922 7.286V5.928H56.1823V22.852H59.9795V14.251C59.9795 11.204 61.4897 9.523 64.2307 9.523C64.2657 9.523 64.3093 9.523 64.3704 9.532C64.4839 9.541 64.5974 9.55 64.7196 9.55H65.5925V5.815H64.7196C62.7555 5.815 61.1056 6.32 59.8922 7.286ZM78.9572 13.093L86.4732 5.937H81.4102L73.5363 13.119V-0.296997H69.739V22.861H73.5363V18.046L76.1551 15.644L81.9688 22.861H86.7089L78.9659 13.093H78.9572Z" fill="#FEE402"/>
<path d="M4.8448 140.722C4.8448 142.08 3.75363 143.185 2.40931 143.185C1.06498 143.185 0 142.08 0 140.722C0 139.363 1.05625 138.293 2.40931 138.293C3.76236 138.293 4.8448 139.381 4.8448 140.722ZM20.095 137.779C19.0562 139.302 17.5111 139.625 16.385 139.625C13.4607 139.625 11.4966 137.596 11.4966 134.575C11.4966 131.554 13.5043 129.535 16.385 129.535C17.9563 129.535 19.2745 130.196 20.095 131.406L20.5839 132.129L23.5257 130.135L23.0979 129.43C21.7536 127.228 19.3705 126.009 16.385 126.009C11.3307 126.009 7.67312 129.613 7.67312 134.584C7.67312 139.555 11.3395 143.194 16.385 143.194C19.3006 143.194 21.7449 141.949 23.0892 139.772L23.5257 139.067L20.5751 137.074L20.0863 137.796L20.095 137.779ZM43.1144 134.575C43.1144 139.564 39.5004 143.185 34.5159 143.185C29.5315 143.185 25.8826 139.564 25.8826 134.575C25.8826 129.587 29.514 126 34.5159 126C39.5179 126 43.1144 129.604 43.1144 134.575ZM39.2822 134.575C39.2822 131.607 37.3181 129.535 34.5159 129.535C31.7138 129.535 29.7148 131.607 29.7148 134.575C29.7148 137.544 31.6876 139.625 34.5159 139.625C37.3443 139.625 39.2822 137.553 39.2822 134.575ZM67.609 126C65.1561 126 63.0697 126.871 61.6643 128.464C60.4684 126.871 58.5479 126 56.1735 126C54.3229 126 52.708 126.505 51.4597 127.471V126.122H47.7497V143.046H51.547V134.21C51.547 131.276 53.0833 129.596 55.772 129.596C58.1114 129.596 59.2986 130.936 59.2986 133.574V143.046H63.0959V134.21C63.0959 131.276 64.6323 129.596 67.3209 129.596C69.643 129.596 70.8214 130.936 70.8214 133.574V143.046H74.6187V133.374C74.6187 128.76 71.9999 126.009 67.609 126.009V126Z" fill="#00F094"/>
</g>
<defs>
<clipPath id="clip0_94_34">
<rect width="87" height="137" fill="white"/>
</clipPath>
</defs>
</svg>
