<svg width="87" height="137" viewBox="0 0 87 137" fill="none" xmlns="http://www.w3.org/2000/svg">
<path d="M4.8448 51.6404C4.8448 52.9985 3.75363 54.0954 2.40931 54.0954C1.06498 54.0954 0 52.9898 0 51.6404C0 50.291 1.05625 49.2115 2.40931 49.2115C3.76236 49.2115 4.8448 50.2997 4.8448 51.6404ZM25.1581 48.3235L20.9069 37.0321H17.9301L13.6527 48.3148L9.4801 37.0321H5.63918L12.0291 53.9561H15.1717L19.3792 43.0739L23.5868 53.9561H26.7293L33.1454 37.0321H29.3918L25.1581 48.3235ZM51.547 45.4941C51.547 50.4825 47.933 54.1041 42.9485 54.1041C37.9641 54.1041 34.3152 50.4825 34.3152 45.4941C34.3152 40.5057 37.9466 36.919 42.9485 36.919C47.9505 36.919 51.547 40.5231 51.547 45.4941ZM47.7148 45.4941C47.7148 42.5255 45.7507 40.4448 42.9485 40.4448C40.1464 40.4448 38.1474 42.5168 38.1474 45.4941C38.1474 48.4715 40.1202 50.5435 42.9485 50.5435C45.7768 50.5435 47.7148 48.4715 47.7148 45.4941ZM59.8922 38.3902V37.0321H56.1823V53.9561H59.9795V45.3548C59.9795 42.3078 61.4897 40.6276 64.2307 40.6276C64.2657 40.6276 64.3093 40.6276 64.3704 40.6363C64.4839 40.645 64.5974 40.6537 64.7196 40.6537H65.5925V36.919H64.7196C62.7555 36.919 61.1056 37.4239 59.8922 38.3902ZM78.9572 44.197L86.4732 37.0408H81.4102L73.5363 44.2231V30.8075H69.739V53.9648H73.5363V49.1505L76.1551 46.7477L81.9688 53.9648H86.7089L78.9659 44.197H78.9572Z" fill="#FEE402"/>
<path d="M4.8448 14.7214C4.8448 16.0795 3.75363 17.1851 2.40931 17.1851C1.06498 17.1851 0 16.0795 0 14.7214C0 13.3633 1.05625 12.2925 2.40931 12.2925C3.76236 12.2925 4.8448 13.3807 4.8448 14.7214ZM20.095 11.7789C19.0562 13.3024 17.5111 13.6245 16.385 13.6245C13.4607 13.6245 11.4966 11.5961 11.4966 8.57516C11.4966 5.55427 13.5043 3.53453 16.385 3.53453C17.9563 3.53453 19.2745 4.19617 20.095 5.40627L20.5839 6.12885L23.5257 4.13523L23.0979 3.43007C21.7536 1.22751 19.3705 0.00870758 16.385 0.00870758C11.3307 0.00870758 7.67312 3.61289 7.67312 8.58387C7.67312 13.5549 11.3395 17.1939 16.385 17.1939C19.3006 17.1939 21.7449 15.9489 23.0892 13.7725L23.5257 13.0673L20.5751 11.0737L20.0863 11.7963L20.095 11.7789ZM43.1144 8.57516C43.1144 13.5636 39.5004 17.1851 34.5159 17.1851C29.5315 17.1851 25.8826 13.5636 25.8826 8.57516C25.8826 3.58677 29.514 0 34.5159 0C39.5179 0 43.1144 3.60418 43.1144 8.57516V8.57516ZM39.2822 8.57516C39.2822 5.6065 37.3181 3.53453 34.5159 3.53453C31.7138 3.53453 29.7148 5.6065 29.7148 8.57516C29.7148 11.5438 31.6876 13.6245 34.5159 13.6245C37.3443 13.6245 39.2822 11.5525 39.2822 8.57516V8.57516ZM67.609 0C65.1561 0 63.0697 0.870575 61.6643 2.46373C60.4684 0.870575 58.5479 0 56.1735 0C54.3229 0 52.708 0.504935 51.4597 1.47127V0.12188H47.7497V17.0459H51.547V8.20952C51.547 5.27568 53.0833 3.59547 55.772 3.59547C58.1114 3.59547 59.2986 4.93616 59.2986 7.574V17.0459H63.0959V8.20952C63.0959 5.27568 64.6323 3.59547 67.3209 3.59547C69.643 3.59547 70.8214 4.93616 70.8214 7.574V17.0459H74.6187V7.37377C74.6187 2.75972 71.9999 0.00870758 67.609 0.00870758V0Z" fill="#00F094"/>
<path d="M4.8448 134.536C4.8448 135.894 3.75363 136.991 2.40931 136.991C1.06498 136.991 0 135.886 0 134.536C0 133.187 1.05625 132.107 2.40931 132.107C3.76236 132.107 4.8448 133.196 4.8448 134.536ZM25.1581 131.219L20.9069 119.928H17.9301L13.6527 131.211L9.4801 119.928H5.63918L12.0291 136.852H15.1717L19.3792 125.97L23.5868 136.852H26.7293L33.1454 119.928H29.3918L25.1581 131.219ZM51.547 128.39C51.547 133.378 47.933 137 42.9485 137C37.9641 137 34.3152 133.378 34.3152 128.39C34.3152 123.402 37.9466 119.815 42.9485 119.815C47.9505 119.815 51.547 123.419 51.547 128.39ZM47.7148 128.39C47.7148 125.421 45.7507 123.341 42.9485 123.341C40.1464 123.341 38.1474 125.413 38.1474 128.39C38.1474 131.367 40.1202 133.439 42.9485 133.439C45.7768 133.439 47.7148 131.367 47.7148 128.39ZM59.8922 121.286V119.928H56.1823V136.852H59.9795V128.251C59.9795 125.204 61.4897 123.523 64.2307 123.523C64.2657 123.523 64.3093 123.523 64.3704 123.532C64.4839 123.541 64.5974 123.55 64.7196 123.55H65.5925V119.815H64.7196C62.7555 119.815 61.1056 120.32 59.8922 121.286ZM78.9572 127.093L86.4732 119.937H81.4102L73.5363 127.119V113.703H69.739V136.861H73.5363V132.046L76.1551 129.644L81.9688 136.861H86.7089L78.9659 127.093H78.9572Z" fill="#FEE402"/>
<path d="M4.8448 91.7796C4.8448 93.1377 3.75363 94.2433 2.40931 94.2433C1.06498 94.2433 0 93.1377 0 91.7796C0 90.4215 1.05625 89.3507 2.40931 89.3507C3.76236 89.3507 4.8448 90.4389 4.8448 91.7796ZM20.095 88.837C19.0562 90.3605 17.5111 90.6826 16.385 90.6826C13.4607 90.6826 11.4966 88.6542 11.4966 85.6333C11.4966 82.6124 13.5043 80.5927 16.385 80.5927C17.9563 80.5927 19.2745 81.2543 20.095 82.4644L20.5839 83.187L23.5257 81.1934L23.0979 80.4882C21.7536 78.2857 19.3705 77.0669 16.385 77.0669C11.3307 77.0669 7.67312 80.671 7.67312 85.642C7.67312 90.613 11.3395 94.252 16.385 94.252C19.3006 94.252 21.7449 93.0071 23.0892 90.8306L23.5257 90.1255L20.5751 88.1319L20.0863 88.8544L20.095 88.837ZM43.1144 85.6333C43.1144 90.6217 39.5004 94.2433 34.5159 94.2433C29.5315 94.2433 25.8826 90.6217 25.8826 85.6333C25.8826 80.6449 29.514 77.0581 34.5159 77.0581C39.5179 77.0581 43.1144 80.6623 43.1144 85.6333V85.6333ZM39.2822 85.6333C39.2822 82.6646 37.3181 80.5927 34.5159 80.5927C31.7138 80.5927 29.7148 82.6646 29.7148 85.6333C29.7148 88.602 31.6876 90.6826 34.5159 90.6826C37.3443 90.6826 39.2822 88.6107 39.2822 85.6333V85.6333ZM67.609 77.0581C65.1561 77.0581 63.0697 77.9287 61.6643 79.5219C60.4684 77.9287 58.5479 77.0581 56.1735 77.0581C54.3229 77.0581 52.708 77.5631 51.4597 78.5294V77.18H47.7497V94.104H51.547V85.2677C51.547 82.3338 53.0833 80.6536 55.772 80.6536C58.1114 80.6536 59.2986 81.9943 59.2986 84.6321V94.104H63.0959V85.2677C63.0959 82.3338 64.6323 80.6536 67.3209 80.6536C69.643 80.6536 70.8214 81.9943 70.8214 84.6321V94.104H74.6187V84.4319C74.6187 79.8179 71.9999 77.0669 67.609 77.0669V77.0581Z" fill="#00F094"/>
</svg>
