<svg width="103" height="46" viewBox="0 0 103 46" fill="none" xmlns="http://www.w3.org/2000/svg">
<g clip-path="url(#clip0_17_4)">
<path d="M5.33 15.31H0V30.07H2.91V26.25C3.46 26.35 4.09 26.39 4.9 26.39C9.03 26.39 11.59 24.22 11.59 20.66C11.59 17.53 9.25 15.31 5.33 15.31ZM4.84 23.85C4.07 23.85 3.44 23.81 2.91 23.71V17.88H5.11C7.61 17.88 8.57 19.18 8.57 20.71C8.57 22.56 7.57 23.84 4.83 23.84L4.84 23.85Z" fill="black"/>
<path d="M21.09 15.14L14.12 30.08H28.43L21.44 15.14H21.09V15.14ZM24.12 27.42L24.23 27.7H18.29L18.4 27.42L19.35 25.08L21.26 20.47L23.15 25.08L24.11 27.42H24.12Z" fill="black"/>
<path d="M30.66 17.91H34.13V30.08H37.04V17.91H40.49V15.31H30.66V17.91Z" fill="black"/>
<path d="M49.31 15.31H46.44V30.07H49.31V15.31Z" fill="black"/>
<path d="M63.2 15.1C58.81 15.1 55.56 18.41 55.56 22.76C55.56 27.11 58.81 30.4 63.2 30.4C67.59 30.4 70.86 27.07 70.86 22.76C70.86 18.45 67.61 15.1 63.2 15.1V15.1ZM63.2 27.7C60.44 27.7 58.48 25.55 58.48 22.76C58.48 19.97 60.45 17.76 63.2 17.76C65.95 17.76 67.94 19.91 67.94 22.76C67.94 25.61 65.93 27.7 63.2 27.7V27.7Z" fill="black"/>
<path d="M102.16 15.35V30.05H101.79L91.8 21.03V29.95H88.98V15.23H89.35L99.32 24.15V15.35H102.16V15.35Z" fill="black"/>
<path d="M88.9 32.5V42.54H49.41V32.74H46.37V45.58H91.94V32.5H88.9Z" fill="#00F5D4"/>
<path d="M49.41 3.04H88.9V11.68L91.94 14.31V0H46.37V12.84H49.41V3.04Z" fill="#00F5D4"/>
</g>
<defs>
<clipPath id="clip0_17_4">
<rect width="102.16" height="45.58" fill="white"/>
</clipPath>
</defs>
</svg>
