<svg width="270" height="121" viewBox="0 0 270 121" fill="none" xmlns="http://www.w3.org/2000/svg">
<g clip-path="url(#clip0_84_2)">
<path d="M14.96 39.85H0V80.96H9.62V70.66C10.8 70.8 12.15 70.87 13.83 70.87C25.26 70.87 32.35 64.74 32.35 54.86C32.35 45.74 25.52 39.85 14.95 39.85H14.96ZM9.62 48.58H14.38C19.58 48.58 22.44 50.86 22.44 54.99C22.44 59.83 19.56 62.19 13.64 62.19H12.08C11.15 62.16 10.33 62.09 9.61 62V48.58H9.62ZM80.31 39.85H108.06V48.66H99.02V80.96H89.4V48.66H80.31V39.85ZM121.64 39.85H131.16V80.96H121.64V39.85V39.85ZM166.54 39.3C154.56 39.3 145.53 48.36 145.53 60.36C145.53 72.36 154.56 81.37 166.54 81.37C178.52 81.37 187.6 72.34 187.6 60.36C187.6 48.38 178.54 39.3 166.54 39.3ZM177.96 60.36C177.96 67.28 173.16 72.3 166.54 72.3C159.92 72.3 155.18 67.28 155.18 60.36C155.18 53.44 160.06 48.26 166.54 48.26C173.02 48.26 177.96 53.35 177.96 60.36V60.36ZM56.67 39.83L36.27 80.98H77.17L56.66 39.83H56.67ZM50.32 72.7L56.68 57.24L63.02 72.7H50.33H50.32ZM269.58 39.85V80.96L242.44 58.03V80.96H233.05V39.85L260.13 61.82V39.85H269.57H269.58Z" fill="#001D3D"/>
<path d="M242.57 87.63V120.89H121.71V87.63H131.17V111.43H233.11V87.63H242.57ZM121.71 0V33.08H131.17V9.46H233.11V31.69L242.57 39.36V0H121.71Z" fill="#00F094"/>
<path d="M210.1 65.3C205.78 65.3 202.27 68.81 202.27 73.13C202.27 77.45 205.78 80.96 210.1 80.96C214.42 80.96 217.93 77.45 217.93 73.13C217.93 68.81 214.42 65.3 210.1 65.3Z" fill="#00F094"/>
<path d="M5.55 118.06C5.55 119.62 4.3 120.89 2.76 120.89C1.22 120.89 0 119.62 0 118.06C0 116.5 1.21 115.27 2.76 115.27C4.31 115.27 5.55 116.52 5.55 118.06ZM23.02 114.68C21.83 116.43 20.06 116.8 18.77 116.8C15.42 116.8 13.17 114.47 13.17 111C13.17 107.53 15.47 105.21 18.77 105.21C20.57 105.21 22.08 105.97 23.02 107.36L23.58 108.19L26.95 105.9L26.46 105.09C24.92 102.56 22.19 101.16 18.77 101.16C12.98 101.16 8.79 105.3 8.79 111.01C8.79 116.72 12.99 120.9 18.77 120.9C22.11 120.9 24.91 119.47 26.45 116.97L26.95 116.16L23.57 113.87L23.01 114.7L23.02 114.68ZM49.39 111C49.39 116.73 45.25 120.89 39.54 120.89C33.83 120.89 29.65 116.73 29.65 111C29.65 105.27 33.81 101.15 39.54 101.15C45.27 101.15 49.39 105.29 49.39 111ZM45 111C45 107.59 42.75 105.21 39.54 105.21C36.33 105.21 34.04 107.59 34.04 111C34.04 114.41 36.3 116.8 39.54 116.8C42.78 116.8 45 114.42 45 111ZM77.45 101.15C74.64 101.15 72.25 102.15 70.64 103.98C69.27 102.15 67.07 101.15 64.35 101.15C62.23 101.15 60.38 101.73 58.95 102.84V101.29H54.7V120.73H59.05V110.58C59.05 107.21 60.81 105.28 63.89 105.28C66.57 105.28 67.93 106.82 67.93 109.85V120.73H72.28V110.58C72.28 107.21 74.04 105.28 77.12 105.28C79.78 105.28 81.13 106.82 81.13 109.85V120.73H85.48V109.62C85.48 104.32 82.48 101.16 77.45 101.16V101.15Z" fill="#00F094"/>
</g>
<defs>
<clipPath id="clip0_84_2">
<rect width="269.59" height="120.89" fill="white"/>
</clipPath>
</defs>
</svg>
