<svg width="488" height="220" viewBox="0 0 488 220" fill="none" xmlns="http://www.w3.org/2000/svg">
<g clip-path="url(#clip0_61_19)">
<path d="M28.1107 72.876H1.06519V147.513H18.4568V128.813C20.5901 129.067 23.0307 129.194 26.0679 129.194C46.7317 129.194 59.5494 118.065 59.5494 100.127C59.5494 83.5696 47.2017 72.876 28.0927 72.876H28.1107ZM18.4568 88.7257H27.0622C36.463 88.7257 41.6335 92.8652 41.6335 100.363C41.6335 109.151 36.4269 113.435 25.7244 113.435H22.9041C21.2228 113.381 19.7404 113.254 18.4387 113.09V88.7257H18.4568Z" fill="#001D3D"/>
<path d="M146.236 88.871H162.669V147.513H180.079V88.871H196.404V72.876H146.236V88.871Z" fill="#001D3D"/>
<path d="M238.184 72.876H220.973V147.513H238.184V72.876Z" fill="#001D3D"/>
<path d="M302.146 71.8775C280.488 71.8775 264.163 88.3263 264.163 110.113C264.163 131.899 280.488 148.257 302.146 148.257C323.804 148.257 340.219 131.863 340.219 110.113C340.219 88.3626 323.84 71.8775 302.146 71.8775ZM322.791 110.113C322.791 122.676 314.114 131.79 302.146 131.79C290.178 131.79 281.608 122.676 281.608 110.113C281.608 97.5493 290.431 88.1448 302.146 88.1448C313.861 88.1448 322.791 97.3859 322.791 110.113Z" fill="#001D3D"/>
<path d="M103.733 72.876L66.8531 147.586H140.794L103.715 72.876H103.733ZM92.2535 132.553L103.751 104.485L115.213 132.553H92.2716H92.2535Z" fill="#001D3D"/>
<path d="M471.361 72.876V112.764L422.404 72.876V147.513H439.38V105.883L488.427 147.513V72.876H471.361Z" fill="#001D3D"/>
<path d="M422.477 159.623V202.815H238.202V159.623H221.081V220.008H439.579V159.623H422.477Z" fill="#00F094"/>
<path d="M221.081 0.526512V60.5848H238.202V17.7016H422.477V58.043L439.579 71.9864V0.526512H221.081Z" fill="#00F094"/>
<path d="M380.896 119.082C373.086 119.082 366.74 125.454 366.74 133.297C366.74 141.141 373.086 147.513 380.896 147.513C388.706 147.513 395.052 141.141 395.052 133.297C395.052 125.454 388.706 119.082 380.896 119.082Z" fill="#00F094"/>
<path d="M9.47976 207.17C9.47976 209.876 7.34468 212.078 4.71426 212.078C2.08384 212.078 0 209.876 0 207.17C0 204.465 2.06676 202.332 4.71426 202.332C7.36176 202.332 9.47976 204.5 9.47976 207.17V207.17ZM39.3197 201.309C37.2871 204.344 34.2638 204.985 32.0604 204.985C26.3384 204.985 22.4952 200.945 22.4952 194.927C22.4952 188.909 26.4238 184.885 32.0604 184.885C35.1349 184.885 37.7141 186.203 39.3197 188.614L40.2762 190.053L46.0324 186.082L45.1954 184.677C42.565 180.29 37.902 177.862 32.0604 177.862C22.1707 177.862 15.0139 185.041 15.0139 194.944C15.0139 204.847 22.1878 212.096 32.0604 212.096C37.7653 212.096 42.5479 209.616 45.1783 205.28L46.0324 203.875L40.2591 199.904L39.3026 201.343L39.3197 201.309ZM84.3613 194.927C84.3613 204.864 77.2899 212.078 67.5369 212.078C57.7838 212.078 50.6441 204.864 50.6441 194.927C50.6441 184.989 57.7497 177.844 67.5369 177.844C77.3241 177.844 84.3613 185.024 84.3613 194.927V194.927ZM76.8629 194.927C76.8629 189.013 73.0198 184.885 67.5369 184.885C62.054 184.885 58.1425 189.013 58.1425 194.927C58.1425 200.84 62.0028 204.985 67.5369 204.985C73.071 204.985 76.8629 200.858 76.8629 194.927ZM132.29 177.844C127.49 177.844 123.408 179.579 120.658 182.752C118.318 179.579 114.56 177.844 109.914 177.844C106.293 177.844 103.133 178.85 100.69 180.775V178.087H93.4312V211.801H100.861V194.198C100.861 188.354 103.867 185.007 109.128 185.007C113.706 185.007 116.029 187.678 116.029 192.932V211.801H123.459V194.198C123.459 188.354 126.465 185.007 131.726 185.007C136.269 185.007 138.575 187.678 138.575 192.932V211.801H146.005V192.533C146.005 183.342 140.881 177.862 132.29 177.862V177.844Z" fill="#00F094"/>
</g>
<defs>
<clipPath id="clip0_61_19">
<rect width="488" height="220" fill="white"/>
</clipPath>
</defs>
</svg>
