<?xml version="1.0" encoding="UTF-8"?><svg id="Calque_1" xmlns="http://www.w3.org/2000/svg" viewBox="0 0 357 153.46"><defs><style>.cls-1{fill:#00f094;}.cls-2{fill:#001d3d;}</style></defs><g><path class="cls-2" d="M58.67,56.14h-14.96v41.11h9.62v-10.3c1.18,.14,2.53,.21,4.21,.21,11.43,0,18.52-6.13,18.52-16.01,0-9.12-6.83-15.01-17.4-15.01Zm-5.34,8.73h4.76c5.2,0,8.06,2.28,8.06,6.41,0,4.84-2.88,7.2-8.8,7.2h-1.56c-.93-.03-1.75-.1-2.47-.19v-13.42Z"/><polygon class="cls-2" points="124.01 64.95 133.1 64.95 133.1 97.25 142.73 97.25 142.73 64.95 151.76 64.95 151.76 56.14 124.01 56.14 124.01 64.95"/><rect class="cls-2" x="165.35" y="56.14" width="9.52" height="41.11"/><path class="cls-2" d="M210.25,55.59c-11.98,0-21.01,9.06-21.01,21.06s9.03,21.01,21.01,21.01,21.06-9.03,21.06-21.01-9.06-21.06-21.06-21.06Zm11.42,21.06c0,6.92-4.8,11.94-11.42,11.94s-11.36-5.02-11.36-11.94,4.88-12.1,11.36-12.1,11.42,5.09,11.42,12.1Z"/><path class="cls-2" d="M100.38,56.12l-20.4,41.15h40.9l-20.51-41.15Zm-6.35,32.87l6.36-15.46,6.34,15.46h-12.69Z"/></g><polygon class="cls-2" points="303.85 56.14 303.85 78.11 276.77 56.14 276.77 97.25 286.16 97.25 286.16 74.32 313.29 97.25 313.29 56.14 303.85 56.14"/><g><polygon class="cls-1" points="276.81 103.92 276.81 127.71 174.88 127.71 174.88 103.92 165.41 103.92 165.41 137.18 286.27 137.18 286.27 103.92 276.81 103.92"/><polygon class="cls-1" points="165.41 16.29 165.41 49.37 174.88 49.37 174.88 25.75 276.81 25.75 276.81 47.97 286.27 55.65 286.27 16.29 165.41 16.29"/></g><path class="cls-1" d="M253.81,81.59c-4.32,0-7.83,3.51-7.83,7.83s3.51,7.83,7.83,7.83,7.83-3.51,7.83-7.83-3.51-7.83-7.83-7.83Z"/><g><path class="cls-1" d="M46.46,131.56c-1.55,0-2.76,1.23-2.76,2.79s1.24,2.83,2.76,2.83,2.79-1.27,2.79-2.83-1.25-2.79-2.79-2.79Z"/><path class="cls-1" d="M66.73,130.97c-1.19,1.75-2.96,2.12-4.25,2.12-3.35,0-5.6-2.33-5.6-5.8s2.3-5.79,5.6-5.79c1.8,0,3.31,.76,4.25,2.15l.56,.83,3.37-2.29-.49-.81c-1.54-2.53-4.27-3.93-7.69-3.93-5.79,0-9.98,4.14-9.98,9.85s4.2,9.89,9.98,9.89c3.34,0,6.14-1.43,7.68-3.93l.5-.81-3.38-2.29-.56,.83Z"/><path class="cls-1" d="M83.25,117.44c-5.73,0-9.89,4.14-9.89,9.85s4.16,9.89,9.89,9.89,9.85-4.16,9.85-9.89-4.14-9.85-9.85-9.85Zm0,15.65c-3.24,0-5.5-2.38-5.5-5.8s2.26-5.79,5.5-5.79,5.46,2.38,5.46,5.79-2.25,5.8-5.46,5.8Z"/><path class="cls-1" d="M121.16,117.44c-2.81,0-5.2,1-6.81,2.83-1.37-1.83-3.57-2.83-6.29-2.83-2.12,0-3.97,.58-5.4,1.69v-1.55h-4.25v19.44h4.35v-10.15c0-3.37,1.76-5.3,4.84-5.3,2.68,0,4.04,1.54,4.04,4.57v10.88h4.35v-10.15c0-3.37,1.76-5.3,4.84-5.3,2.66,0,4.01,1.54,4.01,4.57v10.88h4.35v-11.11c0-5.3-3-8.46-8.03-8.46Z"/></g></svg>