<svg width="564" height="254" viewBox="0 0 564 254" fill="none" xmlns="http://www.w3.org/2000/svg">
<g clip-path="url(#clip0_61_19)">
<path d="M32.4886 84.1387H1.23108V170.311H21.3312V148.72C23.7967 149.014 26.6174 149.161 30.1276 149.161C54.0096 149.161 68.8235 136.311 68.8235 115.602C68.8235 96.4849 54.5528 84.1387 32.4677 84.1387H32.4886ZM21.3312 102.438H31.2768C42.1417 102.438 48.1174 107.217 48.1174 115.874C48.1174 126.019 42.0999 130.966 29.7306 130.966H26.4711C24.528 130.903 22.8147 130.757 21.3103 130.568V102.438H21.3312Z" fill="#001D3D"/>
<path d="M169.01 102.606H188.003V170.311H208.124V102.606H226.992V84.1387H169.01V102.606Z" fill="#001D3D"/>
<path d="M275.278 84.1387H255.387V170.311H275.278V84.1387Z" fill="#001D3D"/>
<path d="M349.201 82.9858C324.17 82.9858 305.303 101.977 305.303 127.13C305.303 152.284 324.17 171.17 349.201 171.17C374.232 171.17 393.204 152.242 393.204 127.13C393.204 102.019 374.274 82.9858 349.201 82.9858ZM373.062 127.13C373.062 141.636 363.033 152.158 349.201 152.158C335.369 152.158 325.466 141.636 325.466 127.13C325.466 112.625 335.662 101.767 349.201 101.767C362.741 101.767 373.062 112.436 373.062 127.13Z" fill="#001D3D"/>
<path d="M119.889 84.1387L77.2646 170.394H162.721L119.868 84.1387H119.889ZM106.621 153.038L119.909 120.632L133.156 153.038H106.642H106.621Z" fill="#001D3D"/>
<path d="M544.77 84.1387V130.191L488.188 84.1387V170.311H507.808V122.246L564.494 170.311V84.1387H544.77Z" fill="#001D3D"/>
<path d="M488.272 184.292V234.159H275.299V184.292H255.512V254.009H508.038V184.292H488.272Z" fill="#00F094"/>
<path d="M255.512 0.60788V69.9479H275.299V20.4373H488.272V67.0133L508.038 83.1116V0.60788H255.512Z" fill="#00F094"/>
<path d="M440.216 137.485C431.19 137.485 423.856 144.843 423.856 153.898C423.856 162.953 431.19 170.311 440.216 170.311C449.242 170.311 456.576 162.953 456.576 153.898C456.576 144.843 449.242 137.485 440.216 137.485Z" fill="#00F094"/>
<path d="M10.9561 239.188C10.9561 242.311 8.48852 244.854 5.44845 244.854C2.40837 244.854 0 242.311 0 239.188C0 236.064 2.38863 233.601 5.44845 233.601C8.50826 233.601 10.9561 236.104 10.9561 239.188V239.188ZM45.4432 232.42C43.0941 235.924 39.5999 236.665 37.0534 236.665C30.4402 236.665 25.9986 232 25.9986 225.052C25.9986 218.104 30.5389 213.459 37.0534 213.459C40.6067 213.459 43.5876 214.98 45.4432 217.763L46.5487 219.425L53.2013 214.84L52.234 213.218C49.194 208.153 43.8047 205.349 37.0534 205.349C25.6235 205.349 17.3521 213.639 17.3521 225.072C17.3521 236.505 25.6432 244.874 37.0534 244.874C43.6468 244.874 49.1742 242.011 52.2143 237.005L53.2013 235.383L46.529 230.798L45.4235 232.46L45.4432 232.42ZM97.4996 225.052C97.4996 236.525 89.3269 244.854 78.0549 244.854C66.783 244.854 58.5313 236.525 58.5313 225.052C58.5313 213.579 66.7435 205.329 78.0549 205.329C89.3664 205.329 97.4996 213.619 97.4996 225.052V225.052ZM88.8334 225.052C88.8334 218.224 84.3917 213.459 78.0549 213.459C71.7182 213.459 67.1975 218.224 67.1975 225.052C67.1975 231.879 71.6589 236.665 78.0549 236.665C84.4509 236.665 88.8334 231.9 88.8334 225.052ZM152.892 205.329C147.345 205.329 142.627 207.332 139.449 210.996C136.744 207.332 132.401 205.329 127.032 205.329C122.847 205.329 119.195 206.491 116.372 208.713V205.61H107.982V244.534H116.569V224.211C116.569 217.463 120.044 213.599 126.124 213.599C131.414 213.599 134.099 216.682 134.099 222.749V244.534H142.686V224.211C142.686 217.463 146.161 213.599 152.241 213.599C157.492 213.599 160.157 216.682 160.157 222.749V244.534H168.744V222.289C168.744 211.677 162.822 205.349 152.892 205.349V205.329Z" fill="#00F094"/>
</g>
<defs>
<clipPath id="clip0_61_19">
<rect width="564" height="254" fill="white"/>
</clipPath>
</defs>
</svg>
