<?xml version="1.0" encoding="UTF-8"?><svg id="Calque_1" xmlns="http://www.w3.org/2000/svg" viewBox="0 0 269.59 120.89"><defs><style>.cls-1{fill:#00f094;}.cls-2{fill:#001d3d;}</style></defs><path class="cls-2" d="M14.96,39.85H0v41.11H9.62v-10.3c1.18,.14,2.53,.21,4.21,.21,11.43,0,18.52-6.13,18.52-16.01,0-9.12-6.83-15.01-17.4-15.01Zm-5.34,8.73h4.76c5.2,0,8.06,2.28,8.06,6.41,0,4.84-2.88,7.2-8.8,7.2h-1.56c-.93-.03-1.75-.1-2.47-.19v-13.42Zm70.69-8.73h27.75v8.81h-9.04v32.3h-9.62V48.66h-9.09v-8.81Zm41.33,0h9.52v41.11h-9.52V39.85Zm44.9-.55c-11.98,0-21.01,9.06-21.01,21.06s9.03,21.01,21.01,21.01,21.06-9.03,21.06-21.01-9.06-21.06-21.06-21.06Zm11.42,21.06c0,6.92-4.8,11.94-11.42,11.94s-11.36-5.02-11.36-11.94,4.88-12.1,11.36-12.1,11.42,5.09,11.42,12.1ZM56.67,39.83l-20.4,41.15h40.9l-20.51-41.15Zm-6.35,32.87l6.36-15.46,6.34,15.46h-12.69Zm219.26-32.85v41.11l-27.14-22.93v22.93h-9.39V39.85l27.08,21.97v-21.97h9.44Z"/><path class="cls-1" d="M242.57,87.63v33.26H121.71v-33.26h9.46v23.8h101.94v-23.8h9.46ZM121.71,0V33.08h9.46V9.46h101.94V31.69l9.46,7.67V0H121.71Z"/><path class="cls-1" d="M210.1,65.3c-4.32,0-7.83,3.51-7.83,7.83s3.51,7.83,7.83,7.83,7.83-3.51,7.83-7.83-3.51-7.83-7.83-7.83Z"/><path class="cls-1" d="M5.55,118.06c0,1.56-1.25,2.83-2.79,2.83S0,119.62,0,118.06s1.21-2.79,2.76-2.79,2.79,1.25,2.79,2.79Zm17.47-3.38c-1.19,1.75-2.96,2.12-4.25,2.12-3.35,0-5.6-2.33-5.6-5.8s2.3-5.79,5.6-5.79c1.8,0,3.31,.76,4.25,2.15l.56,.83,3.37-2.29-.49-.81c-1.54-2.53-4.27-3.93-7.69-3.93-5.79,0-9.98,4.14-9.98,9.85s4.2,9.89,9.98,9.89c3.34,0,6.14-1.43,7.68-3.93l.5-.81-3.38-2.29-.56,.83Zm26.37-3.68c0,5.73-4.14,9.89-9.85,9.89s-9.89-4.16-9.89-9.89,4.16-9.85,9.89-9.85,9.85,4.14,9.85,9.85Zm-4.39,0c0-3.41-2.25-5.79-5.46-5.79s-5.5,2.38-5.5,5.79,2.26,5.8,5.5,5.8,5.46-2.38,5.46-5.8Zm32.45-9.85c-2.81,0-5.2,1-6.81,2.83-1.37-1.83-3.57-2.83-6.29-2.83-2.12,0-3.97,.58-5.4,1.69v-1.55h-4.25v19.44h4.35v-10.15c0-3.37,1.76-5.3,4.84-5.3,2.68,0,4.04,1.54,4.04,4.57v10.88h4.35v-10.15c0-3.37,1.76-5.3,4.84-5.3,2.66,0,4.01,1.54,4.01,4.57v10.88h4.35v-11.11c0-5.3-3-8.46-8.03-8.46Z"/></svg>