<svg id="LOGO" xmlns="http://www.w3.org/2000/svg" xmlns:xlink="http://www.w3.org/1999/xlink" width="639.807" height="286.902" viewBox="0 0 639.807 286.902">
  <defs>
    <clipPath id="clip-path">
      <rect id="Rectangle_13" data-name="Rectangle 13" width="639.807" height="286.902" fill="none"/>
    </clipPath>
  </defs>
  <g id="Groupe_14" data-name="Groupe 14" clip-path="url(#clip-path)">
    <path id="Tracé_1" data-name="Tracé 1" d="M35.507,52.761,0,52.759v97.575H22.836V125.9a84.242,84.242,0,0,0,10,.489c27.116,0,43.961-14.558,43.961-37.992,0-21.645-16.207-35.632-41.288-35.632M22.836,73.484h11.3c12.339,0,19.135,5.405,19.135,15.219,0,11.5-6.828,17.085-20.875,17.085H28.7c-2.217-.076-4.147-.227-5.862-.459ZM190.593,52.759h65.853V73.671H235v76.664H212.164V73.671H190.593Zm98.094,0h22.588v97.575H288.687Zm106.559-1.3c-28.428,0-49.865,21.491-49.865,49.99,0,28.428,21.437,49.865,49.865,49.865,28.5,0,49.992-21.437,49.992-49.865,0-28.5-21.493-49.99-49.992-49.99m27.092,49.99c0,16.419-11.393,28.336-27.092,28.336-15.627,0-26.967-11.917-26.967-28.336,0-16.367,11.594-28.709,26.967-28.709,15.7,0,27.092,12.074,27.092,28.709M134.5,52.719,86.088,150.374h97.077Zm-15.063,78,15.085-36.68,15.04,36.68Zm520.374-77.96v97.575l-64.4-54.428v54.428H553.13l0-97.575L617.408,104.9V52.759Z" transform="translate(0 41.818)" fill="#001d3d"/>
    <path id="Tracé_2" data-name="Tracé 2" d="M446.182,207.968V286.9H159.346V207.966l22.457,0v56.476H423.727V207.968ZM159.346,0V78.518H181.8V22.457H423.727V75.2l22.456,18.21V0Z" transform="translate(129.499)" fill="#00f094"/>
    <path id="Tracé_3" data-name="Tracé 3" d="M283.41,85.491A18.591,18.591,0,1,0,302,104.08,18.613,18.613,0,0,0,283.41,85.491" transform="translate(215.214 69.478)" fill="#00f094"/>
    <path id="Tracé_4" data-name="Tracé 4" d="M13.166,172.573a6.672,6.672,0,0,1-6.622,6.705A6.634,6.634,0,0,1,0,172.573a6.512,6.512,0,0,1,6.544-6.622,6.629,6.629,0,0,1,6.622,6.622m41.469-8.023a11.68,11.68,0,0,1-10.077,5.021c-7.947,0-13.285-5.531-13.285-13.76,0-8.1,5.463-13.753,13.285-13.753a11.757,11.757,0,0,1,10.077,5.1l1.334,1.967,8-5.443L62.8,141.75c-3.66-6.011-10.138-9.321-18.239-9.321-13.731,0-23.7,9.834-23.7,23.382,0,13.6,9.966,23.467,23.7,23.467,7.934,0,14.579-3.4,18.232-9.317l1.191-1.934-8.014-5.438Zm62.594-8.739c0,13.6-9.834,23.467-23.384,23.467-13.6,0-23.462-9.87-23.462-23.467,0-13.548,9.866-23.382,23.462-23.382,13.55,0,23.384,9.834,23.384,23.382m-10.414,0c0-8.1-5.333-13.753-12.97-13.753-7.684,0-13.051,5.656-13.051,13.753s5.367,13.76,13.051,13.76c7.637,0,12.97-5.659,12.97-13.76m77.009-23.382c-6.676,0-12.35,2.376-16.166,6.727-3.252-4.352-8.483-6.727-14.92-6.727a20.559,20.559,0,0,0-12.81,4v-3.687h-10.1v46.137h10.332V154.792c0-8,4.184-12.582,11.476-12.582,6.361,0,9.586,3.649,9.586,10.845v25.824h10.334V154.792c0-8,4.182-12.582,11.476-12.582,6.31,0,9.509,3.649,9.509,10.845v25.824h10.332V152.5c0-12.571-7.124-20.076-19.053-20.076" transform="translate(0 107.624)" fill="#00f094"/>
  </g>
</svg>
