<svg width="371" height="167" viewBox="0 0 371 167" fill="none" xmlns="http://www.w3.org/2000/svg">
<g clip-path="url(#clip0_61_19)">
<path d="M21.3711 55.3195H0.809814V111.976H14.0317V97.7808C15.6535 97.9737 17.509 98.0702 19.818 98.0702C35.5276 98.0702 45.2722 89.622 45.2722 76.0058C45.2722 63.4369 35.8849 55.3195 21.3573 55.3195H21.3711ZM14.0317 67.3509H20.5739C27.7209 67.3509 31.6517 70.4931 31.6517 76.1849C31.6517 82.8552 27.6934 86.1077 19.5569 86.1077H17.4128C16.1346 86.0664 15.0075 85.9699 14.018 85.8459V67.3509H14.0317Z" fill="#001D3D"/>
<path d="M111.175 67.4611H123.669V111.976H136.904V67.4611H149.315V55.3195H111.175V67.4611Z" fill="#001D3D"/>
<path d="M181.078 55.3195H167.994V111.976H181.078V55.3195Z" fill="#001D3D"/>
<path d="M229.705 54.5615C213.24 54.5615 200.829 67.0477 200.829 83.5857C200.829 100.124 213.24 112.541 229.705 112.541C246.171 112.541 258.65 100.096 258.65 83.5857C258.65 67.0753 246.198 54.5615 229.705 54.5615ZM245.401 83.5857C245.401 93.1226 238.804 100.041 229.705 100.041C220.606 100.041 214.092 93.1226 214.092 83.5857C214.092 74.0488 220.799 66.9099 229.705 66.9099C238.611 66.9099 245.401 73.9247 245.401 83.5857Z" fill="#001D3D"/>
<path d="M78.8628 55.3195L50.8248 112.031H107.038L78.8491 55.3195H78.8628ZM70.1353 100.62L78.8766 79.3134L87.5904 100.62H70.1491H70.1353Z" fill="#001D3D"/>
<path d="M358.35 55.3195V85.5978L321.131 55.3195V111.976H334.037V80.3745L371.325 111.976V55.3195H358.35Z" fill="#001D3D"/>
<path d="M321.186 121.168V153.955H181.092V121.168H168.076V167.006H334.188V121.168H321.186Z" fill="#00F094"/>
<path d="M168.076 0.399658V45.9893H181.092V13.4371H321.186V44.0599L334.188 54.6442V0.399658H168.076Z" fill="#00F094"/>
<path d="M289.575 90.3938C283.637 90.3938 278.813 95.2312 278.813 101.185C278.813 107.138 283.637 111.976 289.575 111.976C295.512 111.976 300.336 107.138 300.336 101.185C300.336 95.2312 295.512 90.3938 289.575 90.3938Z" fill="#00F094"/>
<path d="M7.20695 157.261C7.20695 159.315 5.58376 160.987 3.584 160.987C1.58423 160.987 0 159.315 0 157.261C0 155.208 1.57124 153.588 3.584 153.588C5.59675 153.588 7.20695 155.234 7.20695 157.261V157.261ZM29.8926 152.812C28.3473 155.115 26.0489 155.603 24.3738 155.603C20.0236 155.603 17.1019 152.535 17.1019 147.967C17.1019 143.399 20.0886 140.345 24.3738 140.345C26.7112 140.345 28.672 141.345 29.8926 143.175L30.6198 144.268L34.9959 141.253L34.3596 140.187C32.3599 136.856 28.8148 135.013 24.3738 135.013C16.8552 135.013 11.4142 140.463 11.4142 147.98C11.4142 155.497 16.8682 161 24.3738 161C28.7109 161 32.3469 159.117 34.3466 155.826L34.9959 154.76L30.6068 151.745L29.8796 152.838L29.8926 152.812ZM64.1354 147.967C64.1354 155.51 58.7594 160.987 51.3446 160.987C43.9299 160.987 38.502 155.51 38.502 147.967C38.502 140.424 43.904 135 51.3446 135C58.7853 135 64.1354 140.45 64.1354 147.967V147.967ZM58.4347 147.967C58.4347 143.478 55.513 140.345 51.3446 140.345C47.1763 140.345 44.2026 143.478 44.2026 147.967C44.2026 152.456 47.1373 155.603 51.3446 155.603C55.5519 155.603 58.4347 152.469 58.4347 147.967ZM100.573 135C96.9237 135 93.8202 136.316 91.7295 138.726C89.9505 136.316 87.0937 135 83.5617 135C80.8087 135 78.4064 135.764 76.5495 137.225V135.184H71.0307V160.776H76.6793V147.414C76.6793 142.978 78.9648 140.437 82.9643 140.437C86.4444 140.437 88.2105 142.464 88.2105 146.453V160.776H93.8592V147.414C93.8592 142.978 96.1446 140.437 100.144 140.437C103.598 140.437 105.351 142.464 105.351 146.453V160.776H111V146.15C111 139.173 107.104 135.013 100.573 135.013V135Z" fill="#00F094"/>
</g>
<defs>
<clipPath id="clip0_61_19">
<rect width="371" height="167" fill="white"/>
</clipPath>
</defs>
</svg>
