<?xml version="1.0" encoding="UTF-8"?><svg id="Calque_1" xmlns="http://www.w3.org/2000/svg" viewBox="0 0 269.59 120.89"><defs><style>.cls-1{fill:#fee402;}.cls-2{fill:#001d3d;}.cls-3{fill:#ffed00;}</style></defs><path class="cls-2" d="M14.96,39.85H0v41.11H9.62v-10.3c1.18,.14,2.53,.21,4.21,.21,11.43,0,18.52-6.13,18.52-16.01,0-9.12-6.83-15.01-17.4-15.01Zm-5.34,8.73h4.76c5.2,0,8.06,2.28,8.06,6.41,0,4.84-2.88,7.2-8.8,7.2h-1.56c-.93-.03-1.75-.1-2.47-.19v-13.42Zm70.69-8.73h27.75v8.81h-9.04v32.3h-9.62V48.66h-9.09v-8.81Zm41.33,0h9.52v41.11h-9.52V39.85Zm44.9-.55c-11.98,0-21.01,9.06-21.01,21.06s9.03,21.01,21.01,21.01,21.06-9.03,21.06-21.01-9.06-21.06-21.06-21.06Zm11.42,21.06c0,6.92-4.8,11.94-11.42,11.94s-11.36-5.02-11.36-11.94,4.88-12.1,11.36-12.1,11.42,5.09,11.42,12.1ZM56.79,39.85l-20.4,41.15h40.9l-20.51-41.15Zm-6.35,32.87l6.36-15.46,6.34,15.46h-12.69Zm219.14-32.87v41.11l-27.14-22.93v22.93h-9.39V39.85l27.08,21.97v-21.97h9.44Z"/><path class="cls-1" d="M242.57,87.63v33.26H121.71v-33.26h9.46v23.8h101.94v-23.8h9.46ZM121.71,0V33.08h9.46V9.46h101.94V31.69l9.46,7.67V0H121.71Z"/><path class="cls-3" d="M210.1,65.3c-4.32,0-7.83,3.51-7.83,7.83s3.51,7.83,7.83,7.83,7.83-3.51,7.83-7.83-3.51-7.83-7.83-7.83Z"/><path class="cls-1" d="M5.55,118.06c0,1.56-1.25,2.82-2.79,2.82s-2.76-1.27-2.76-2.82,1.21-2.79,2.76-2.79,2.79,1.25,2.79,2.79Zm23.27-3.81l-4.87-12.97h-3.41l-4.9,12.96-4.78-12.96H6.46l7.32,19.44h3.6l4.82-12.5,4.82,12.5h3.6l7.35-19.44h-4.3l-4.85,12.97Zm30.23-3.25c0,5.73-4.14,9.89-9.85,9.89s-9.89-4.16-9.89-9.89,4.16-9.85,9.89-9.85,9.85,4.14,9.85,9.85Zm-4.39,0c0-3.41-2.25-5.8-5.46-5.8s-5.5,2.38-5.5,5.8,2.26,5.8,5.5,5.8,5.46-2.38,5.46-5.8Zm13.95-8.16v-1.56h-4.25v19.44h4.35v-9.88c0-3.5,1.73-5.43,4.87-5.43,.04,0,.09,0,.16,.01,.13,.01,.26,.02,.4,.02h1v-4.29h-1c-2.25,0-4.14,.58-5.53,1.69Zm21.84,6.67l8.61-8.22h-5.8l-9.02,8.25v-15.41h-4.35v26.6h4.35v-5.53l3-2.76,6.66,8.29h5.43l-8.87-11.22Z"/></svg>