<svg width="185" height="417" viewBox="0 0 185 417" fill="none" xmlns="http://www.w3.org/2000/svg">
<path d="M116.5 416L124.5 396L116.5 387L103.5 384L91 387L85 396V401L89 405H94L98.5 404L101.5 401L107 396L111 391L114.5 385.5L116.5 373.5L114.5 339.5L112.5 330L108.5 316L105 303L99 276L95 259L85 230L71.5 206L62 192L55 181L47.5 171L45 164L41 154L36.5 143L33 137.5L28 132.5L23 130H21L19 131L18 132.5V134.5L19 137.5L21 139L22 140.5L24 144L26 149L34 163L35 165H37.5H41L46 164L73.5 156.5L85 151.5L110.5 140.5L118 130L117 122L113 113L109 107L105.5 101L101 97H99H96.5L95 98.5V101L96.5 105L97 107.5L105.5 133.5L107.5 134.5H109H110.5L111.5 133.5V131V125.5L110 113.5L101 85.5L95 71.5L81.5 50.5L75 41.5L70 36L63 31L51.5 21L36 10.5L27.5 5L22.5 2L19.5 1H17H15L13 2L12 3L11 5L10 7L8.5 12L6.5 18L4.5 26L2 33L0.5 41.5V51.5V65.5V78V90.5L2 95L3 101L4.5 107L7 111.5L9.5 116.5L12.5 120L19 122L26 121L34.5 118L46 113.5L56.5 109.5L68.5 105L77 102L83 98.5L89.5 96L92.5 94L93.5 91.5L91 90.5L89.5 91.5L86 92.5L78.5 94L75 95L67.5 97L61 98.5L54.5 100L47.5 102L41 105L34.5 107L28 109.5L20 113.5L16 116.5L10.5 122L11.5 129L16.5 143.5L21 152.5L27 163L30 171L33 178L39 187L42.5 193L45 194L47.5 193L48.5 190.5L47.5 188L42.5 181L32 166L29 164H25L24 166L22 169.5L21 173.5L19 181L16.5 188L14 204V212.5L15 222.5L18 233.5L22 242.5L27 250L30 253L34 254L36.5 251L37.5 246L42.5 238.5L46 230L50.5 225L56.5 218L61 211.5L64 208.5L75 200.5L83 197.5L92 195L105 192L117.5 190.5H129.5L139.5 194L149 198.5L159.5 203L168.5 207L176.5 208.5L181 206L180.5 200L176.5 190.5L164.5 169L159.5 163L152 154L144 148L136.5 145.5L129.5 144L122.5 143H113.5V150.5V163V176.5L111.5 182.5V188L109 194V200.5V206V211.5L110.5 213H112.5L113 211L113.5 207L112.5 202L111.5 197.5L110.5 194H106.5L104 196.5L101 197.5L97.5 200L93 202L89 203L84 206L79.5 207H75L69 208.5L66 211L70 217L73.5 221L77.5 224.5L80.5 226H85H93L97.5 225L101 224.5L103 222.5L105 220L104 218L101 217L100 219V222.5L103 228.5L124.5 285.5L149 341L164.5 366.5L170 375L178 384L184.5 391" stroke="black"/>
</svg>
