<svg width="101" height="28" viewBox="0 0 101 28" fill="none" xmlns="http://www.w3.org/2000/svg">
<path d="M3.46001 21.56C1.91001 21.56 0.700012 22.78 0.700012 24.35C0.700012 25.92 1.94001 27.17 3.46001 27.17C4.98001 27.17 6.25001 25.9 6.25001 24.35C6.25001 22.8 5.00001 21.56 3.46001 21.56Z" fill="#FEE402"/>
<path d="M29.52 20.54L24.65 7.57001H21.24L16.34 20.53L11.56 7.57001H7.16003L14.48 27.01H18.08L22.9 14.5L27.71 27.01H31.31L38.67 7.57001H34.37L29.52 20.54Z" fill="#FEE402"/>
<path d="M49.9 7.44C44.17 7.44 40.01 11.58 40.01 17.29C40.01 23 44.17 27.18 49.9 27.18C55.63 27.18 59.75 23.02 59.75 17.29C59.75 11.56 55.61 7.44 49.9 7.44V7.44ZM49.9 23.09C46.66 23.09 44.4 20.71 44.4 17.29C44.4 13.87 46.66 11.49 49.9 11.49C53.14 11.49 55.36 13.87 55.36 17.29C55.36 20.71 53.11 23.09 49.9 23.09Z" fill="#FEE402"/>
<path d="M69.32 9.13V7.57H65.07V27.01H69.42V17.13C69.42 13.63 71.15 11.7 74.29 11.7C74.33 11.7 74.38 11.7 74.45 11.71C74.58 11.72 74.71 11.73 74.85 11.73H75.85V7.44H74.85C72.6 7.44 70.71 8.02 69.32 9.13V9.13Z" fill="#FEE402"/>
<path d="M91.16 15.79L99.77 7.57H93.96L84.94 15.82V0.410004H80.59V27.01H84.94V21.47L87.94 18.72L94.6 27.01H100.03L91.16 15.79Z" fill="#FEE402"/>
</svg>
