<svg width="189" height="43" viewBox="0 0 189 43" fill="none" xmlns="http://www.w3.org/2000/svg">
<path d="M15.67 1.13998H0.710022V42.25H10.33V31.95C11.51 32.09 12.86 32.16 14.54 32.16C25.97 32.16 33.06 26.03 33.06 16.15C33.06 7.02999 26.23 1.13998 15.66 1.13998H15.67ZM10.33 9.86999H15.09C20.29 9.86999 23.15 12.15 23.15 16.28C23.15 21.12 20.27 23.48 14.35 23.48H12.79C11.86 23.45 11.04 23.38 10.32 23.29V9.86999H10.33Z" fill="#001D3D"/>
<path d="M81.01 9.94998H90.1V42.25H99.73V9.94998H108.76V1.13998H81.01V9.94998Z" fill="#001D3D"/>
<path d="M131.87 1.13998H122.35V42.25H131.87V1.13998Z" fill="#001D3D"/>
<path d="M167.25 0.589996C155.27 0.589996 146.24 9.65 146.24 21.65C146.24 33.65 155.27 42.66 167.25 42.66C179.23 42.66 188.31 33.63 188.31 21.65C188.31 9.67 179.25 0.589996 167.25 0.589996ZM178.67 21.65C178.67 28.57 173.87 33.59 167.25 33.59C160.63 33.59 155.89 28.57 155.89 21.65C155.89 14.73 160.77 9.55 167.25 9.55C173.73 9.55 178.67 14.64 178.67 21.65Z" fill="#001D3D"/>
<path d="M57.5 1.13998L37.1 42.29H78L57.49 1.13998H57.5ZM51.15 34.01L57.51 18.55L63.85 34.01H51.16H51.15Z" fill="#001D3D"/>
</svg>
