<svg width="19" height="20" viewBox="0 0 19 20" fill="none" xmlns="http://www.w3.org/2000/svg">
<path d="M15.03 13.68C13.84 15.43 12.07 15.8 10.78 15.8C7.42999 15.8 5.17999 13.47 5.17999 10C5.17999 6.53004 7.47999 4.21004 10.78 4.21004C12.58 4.21004 14.09 4.97004 15.03 6.36004L15.59 7.19004L18.96 4.90004L18.47 4.09003C16.93 1.56003 14.2 0.160034 10.78 0.160034C4.98999 0.160034 0.799988 4.30004 0.799988 10.01C0.799988 15.72 4.99999 19.9 10.78 19.9C14.12 19.9 16.92 18.47 18.46 15.97L18.96 15.16L15.58 12.87L15.02 13.7L15.03 13.68Z" fill="#00F094"/>
</svg>
