<svg width="32" height="20" viewBox="0 0 32 20" fill="none" xmlns="http://www.w3.org/2000/svg">
<path d="M23.46 0.150024C20.65 0.150024 18.26 1.15002 16.65 2.98002C15.28 1.15002 13.08 0.150024 10.36 0.150024C8.23995 0.150024 6.38996 0.730019 4.95996 1.84002V0.290024H0.709961V19.73H5.05996V9.58002C5.05996 6.21002 6.81996 4.28002 9.89996 4.28002C12.58 4.28002 13.94 5.82002 13.94 8.85002V19.73H18.29V9.58002C18.29 6.21002 20.05 4.28002 23.13 4.28002C25.79 4.28002 27.14 5.82002 27.14 8.85002V19.73H31.49V8.62003C31.49 3.32003 28.49 0.160019 23.46 0.160019V0.150024Z" fill="#00F094"/>
</svg>
